<svg width="34" height="25" viewBox="0 0 34 25" fill="none" xmlns="http://www.w3.org/2000/svg">
<path d="M24.5972 22.9006H8.85654C8.50917 22.9121 8.16319 22.8514 7.84049 22.7223C7.51779 22.5933 7.22538 22.3986 6.98176 22.1507C6.73575 21.9088 6.54221 21.6189 6.41319 21.2989C6.28417 20.9789 6.22244 20.6358 6.23184 20.2909V4.52775C6.22035 4.18037 6.28107 3.8344 6.41015 3.51169C6.53923 3.18899 6.73387 2.89658 6.98176 2.65296C7.22538 2.40507 7.51779 2.21044 7.84049 2.08135C8.16319 1.95227 8.50917 1.89156 8.85654 1.90305H24.6047C24.9521 1.89156 25.2981 1.95227 25.6208 2.08135C25.9435 2.21044 26.2359 2.40507 26.4795 2.65296C26.7274 2.89658 26.922 3.18899 27.0511 3.51169C27.1802 3.8344 27.2409 4.18037 27.2294 4.52775V20.2759C27.2255 20.9721 26.9467 21.6386 26.4537 22.1302C25.9607 22.6218 25.2934 22.8987 24.5972 22.9006ZM11.5637 8.94474C11.7825 8.95472 12.0011 8.92145 12.207 8.84681C12.4129 8.77217 12.602 8.65765 12.7636 8.50979C12.9077 8.37904 13.0223 8.21916 13.0999 8.04074C13.1774 7.86232 13.2162 7.66944 13.2135 7.47491C13.2006 7.06981 13.0313 6.68546 12.7411 6.40253C12.4316 6.12316 12.0254 5.97523 11.6087 5.99008C11.1709 5.97012 10.7419 6.11759 10.4089 6.40253C10.2656 6.5407 10.1534 6.70779 10.0797 6.89269C10.006 7.07759 9.97247 7.27606 9.98141 7.47491C9.97821 7.66745 10.0145 7.85862 10.088 8.0366C10.1615 8.21459 10.2707 8.37563 10.4089 8.50979C10.5622 8.65631 10.7435 8.77036 10.9419 8.8451C11.1404 8.91984 11.3519 8.95373 11.5637 8.94474ZM12.9811 10.1521H10.1239V18.8061H12.9811V10.1521ZM23.3674 13.8567C23.4659 12.7732 23.1316 11.6948 22.4375 10.857C22.1312 10.5433 21.7631 10.2966 21.3564 10.1327C20.9498 9.96874 20.5135 9.89108 20.0753 9.90463C19.4496 9.85051 18.8256 10.0265 18.3205 10.3996C17.9947 10.6849 17.7118 11.0158 17.4806 11.382V10.1521H14.6234V18.8061H17.4806V13.5942C17.476 13.4819 17.5019 13.3705 17.5555 13.2717C17.6717 12.9854 17.8511 12.729 18.0805 12.5218C18.3457 12.2918 18.6898 12.1736 19.0404 12.1919C19.2604 12.1729 19.4814 12.2155 19.6787 12.3148C19.876 12.4141 20.0419 12.5663 20.1577 12.7543C20.3939 13.1909 20.5079 13.6832 20.4877 14.1791V18.7911H23.3749L23.3674 13.8567ZM17.4806 11.427C17.4791 11.4208 17.4793 11.4143 17.481 11.4082C17.4828 11.402 17.4861 11.3965 17.4906 11.392C17.4951 11.3875 17.5006 11.3842 17.5068 11.3824C17.5129 11.3807 17.5193 11.3805 17.5255 11.382V11.427H17.4806Z" fill="#FF9500"/>
</svg>
