<svg width="37" height="25" viewBox="0 0 37 25" fill="none" xmlns="http://www.w3.org/2000/svg">
<path fill-rule="evenodd" clip-rule="evenodd" d="M18.77 0.401855C25.3976 0.401855 30.77 5.90976 30.77 12.7054C30.77 18.1402 27.3356 22.7506 22.5704 24.379C21.962 24.5002 21.746 24.116 21.746 23.7884C21.746 23.3828 21.7604 22.058 21.7604 20.4116C21.7604 19.2644 21.3764 18.5157 20.9456 18.1341C23.618 17.8293 26.426 16.7888 26.426 12.0632C26.426 10.7192 25.9604 9.62243 25.19 8.76083C25.3148 8.45003 25.7264 7.19859 25.0724 5.50419C25.0724 5.50419 24.0668 5.17452 21.776 6.76572C20.8172 6.49332 19.79 6.35626 18.77 6.35146C17.75 6.35626 16.724 6.49332 15.7664 6.76572C13.4732 5.17452 12.4652 5.50419 12.4652 5.50419C11.8136 7.19859 12.2252 8.45003 12.3488 8.76083C11.582 9.62243 11.1128 10.7192 11.1128 12.0632C11.1128 16.7768 13.9148 17.8332 16.58 18.144C16.2368 18.4512 15.926 18.9931 15.818 19.7887C15.134 20.1031 13.3964 20.6473 12.326 18.7669C12.326 18.7669 11.6912 17.5847 10.4864 17.4983C10.4864 17.4983 9.31642 17.4828 10.4048 18.246C10.4048 18.246 11.1908 18.624 11.7368 20.046C11.7368 20.046 12.4412 22.2419 15.7796 21.4979C15.7856 22.5263 15.7964 23.4956 15.7964 23.7884C15.7964 24.1136 15.5756 24.4941 14.9768 24.3801C10.208 22.7542 6.77002 18.1414 6.77002 12.7054C6.77002 5.90976 12.1436 0.401855 18.77 0.401855Z" fill="#FF9500"/>
</svg>
